<?xml version="1.0" standalone="no"?>
<!DOCTYPE svg PUBLIC "-//W3C//DTD SVG 20010904//EN"
 "http://www.w3.org/TR/2001/REC-SVG-20010904/DTD/svg10.dtd">
<svg version="1.0" xmlns="http://www.w3.org/2000/svg"
 width="260.000000pt" height="260.000000pt" viewBox="0 0 260.000000 260.000000"
 preserveAspectRatio="xMidYMid meet">
<metadata>
Created by potrace 1.11, written by Peter Selinger 2001-2013
</metadata>
<g transform="translate(0.000000,260.000000) scale(0.100000,-0.100000)"
fill="#000000" stroke="none">
<path d="M343 2426 c-98 -31 -168 -102 -201 -202 -17 -52 -20 -87 -19 -245 0
-101 2 -189 4 -195 2 -7 13 -10 24 -7 18 5 19 16 20 187 0 99 3 190 5 201 3
11 6 27 8 35 11 70 100 164 161 171 6 0 18 6 29 11 11 6 108 10 233 10 192 1
215 2 223 18 5 10 6 20 3 24 -13 12 -446 5 -490 -8z"/>
<path d="M1762 2418 l3 -23 200 -1 c201 -1 269 -7 293 -26 6 -6 12 -7 12 -4 0
10 61 -34 82 -59 21 -25 51 -83 56 -110 4 -22 10 -47 12 -55 1 -3 2 -85 2
-182 1 -164 2 -177 19 -181 28 -8 31 17 25 229 -5 226 -5 224 -16 224 -4 0
-11 12 -15 28 -12 48 -67 110 -130 144 l-60 33 -243 3 -244 4 4 -24z"/>
<path d="M1165 2251 c-3 -2 -22 -6 -42 -8 -47 -5 -64 -20 -100 -89 -15 -30
-31 -54 -35 -54 -4 0 -5 -6 -2 -14 3 -8 1 -17 -5 -21 -6 -3 -11 -15 -11 -26 0
-10 -5 -19 -11 -19 -5 0 -8 -3 -6 -7 3 -5 -3 -41 -13 -82 -11 -41 -17 -78 -14
-82 2 -4 1 -10 -4 -12 -4 -3 -9 -58 -11 -122 l-3 -118 34 24 c18 13 35 27 36
31 2 5 8 6 13 2 5 -3 9 0 9 5 0 6 6 11 13 11 8 0 22 9 32 20 10 11 21 17 26
15 4 -3 10 -1 14 5 7 11 118 66 124 61 2 -1 7 1 10 6 10 14 68 43 85 43 9 0
16 5 16 12 0 6 3 9 6 6 3 -4 22 1 42 9 20 8 48 20 62 26 14 6 27 11 30 12 3 0
30 9 60 20 30 11 58 20 63 21 4 1 8 2 10 4 3 2 40 11 55 12 6 1 12 4 12 8 0 4
6 7 13 8 6 0 21 3 32 6 31 9 99 27 110 29 6 1 15 6 22 10 6 4 14 1 16 -5 4 -8
6 -7 6 4 1 9 -7 18 -16 21 -14 3 -12 6 10 17 l28 14 -28 22 c-15 13 -34 23
-40 24 -7 0 -13 5 -13 11 0 5 -4 7 -10 4 -5 -3 -10 -1 -10 4 0 6 -7 11 -15 11
-8 0 -15 5 -15 11 0 5 -4 7 -10 4 -5 -3 -10 -3 -10 2 0 9 -73 41 -107 48 -12
2 -31 8 -42 14 -11 6 -33 13 -48 15 -15 3 -39 7 -53 10 -72 17 -303 29 -315
17z"/>
<path d="M909 2178 c-8 -7 -21 -14 -29 -16 -22 -4 -104 -46 -108 -54 -2 -5
-10 -8 -18 -8 -8 0 -14 -4 -14 -9 0 -5 -9 -13 -21 -16 -20 -7 -204 -184 -224
-216 -5 -9 -28 -43 -49 -75 -55 -83 -93 -165 -100 -219 -3 -21 23 -87 37 -93
4 -2 7 -8 7 -14 0 -35 164 -201 276 -278 40 -27 76 -50 81 -50 5 0 10 10 10
22 1 13 6 24 10 25 4 2 8 63 7 136 -1 72 1 136 5 142 3 5 6 28 7 51 2 23 5 57
9 76 9 51 16 100 18 131 0 15 4 27 7 27 4 0 7 6 8 13 5 39 10 64 15 77 3 8 8
29 11 45 4 17 8 35 9 40 8 25 29 101 32 115 2 8 9 29 16 45 7 17 13 37 14 45
1 8 5 23 10 33 11 25 -8 42 -26 25z"/>
<path d="M1936 1943 c-4 -5 -20 -8 -34 -9 -15 -1 -45 -4 -67 -9 -22 -4 -47 -8
-55 -10 -8 -1 -23 -5 -32 -9 -30 -10 -53 -17 -56 -16 -1 0 -16 -7 -32 -15 -16
-8 -33 -16 -37 -16 -5 0 -36 -16 -70 -34 -35 -19 -63 -32 -63 -29 0 3 -6 -1
-14 -8 -9 -8 -11 -17 -5 -23 12 -12 12 -28 0 -21 -8 5 -26 -24 -19 -29 2 -1
26 -13 53 -26 98 -49 253 -145 314 -195 9 -7 51 -41 94 -74 42 -34 77 -66 77
-71 0 -5 6 -9 13 -9 7 0 20 -8 29 -17 8 -10 61 -62 116 -115 55 -53 102 -103
104 -110 3 -7 12 8 20 33 20 57 21 264 2 327 -8 24 -13 47 -12 50 3 10 -23 85
-34 99 -5 7 -7 17 -3 23 3 5 1 10 -4 10 -6 0 -11 9 -11 19 0 11 -5 23 -10 26
-6 4 -8 11 -5 16 4 5 1 9 -4 9 -6 0 -11 4 -11 9 0 12 -65 124 -85 146 -5 7
-19 24 -30 38 -11 15 -27 27 -35 27 -9 0 -21 5 -28 12 -9 9 -12 9 -12 0 0 -13
-31 -13 -41 1 -3 4 -9 4 -13 0z"/>
<path d="M355 1406 c-3 -9 -8 -24 -12 -33 -3 -10 -5 -24 -4 -30 1 -7 -2 -13
-6 -13 -12 0 -5 -283 7 -310 1 -3 2 -9 1 -14 -1 -4 2 -13 7 -20 5 -6 8 -19 7
-28 -2 -10 0 -18 5 -18 4 0 10 -12 13 -27 3 -16 16 -50 28 -78 12 -27 23 -53
23 -56 2 -14 90 -153 113 -179 14 -16 32 -29 42 -29 9 0 46 0 83 -1 36 0 77 2
90 5 13 2 36 7 52 10 16 2 34 9 39 14 5 5 15 7 21 5 7 -3 34 4 59 15 26 11 48
20 50 20 1 0 16 5 32 12 17 7 33 12 38 11 4 -1 7 1 7 6 0 4 20 16 45 27 42 18
59 35 35 35 -16 0 0 29 18 32 12 3 7 9 -18 23 -19 11 -38 18 -42 17 -5 -1 -8
2 -8 7 0 5 -10 13 -22 17 -29 9 -258 165 -258 176 0 4 -5 8 -11 8 -6 0 -16 6
-23 13 -7 6 -37 32 -66 57 -70 58 -258 243 -304 298 -27 33 -37 40 -41 28z"/>
<path d="M1779 1400 c-4 -27 -6 -35 -13 -50 -3 -9 -3 -42 1 -75 10 -72 9 -283
-2 -380 -4 -38 -8 -86 -10 -105 -2 -19 -4 -35 -5 -35 -1 0 -3 -17 -6 -39 -2
-21 -8 -52 -12 -70 -5 -17 -8 -39 -6 -49 1 -9 -2 -17 -7 -17 -6 0 -8 -4 -5 -8
3 -5 -4 -47 -15 -93 -31 -131 -33 -150 -15 -143 9 3 16 9 16 13 0 4 6 8 13 8
18 0 122 65 162 102 19 17 35 29 35 26 0 -5 85 87 125 136 11 13 31 42 45 64
13 22 27 42 30 45 10 9 72 144 95 206 21 59 22 62 5 97 -27 55 -59 97 -119
157 -64 64 -162 140 -180 140 -7 0 -9 5 -5 12 4 6 3 8 -4 4 -6 -3 -17 -1 -24
6 -21 20 -56 38 -72 38 -8 0 -17 6 -19 13 -4 8 -6 8 -8 -3z"/>
<path d="M1618 923 c-5 -12 -88 -64 -88 -56 0 4 -6 0 -12 -9 -10 -12 -253
-145 -253 -138 0 4 -64 -22 -87 -36 -16 -8 -28 -12 -28 -8 0 3 -6 2 -12 -4 -7
-6 -16 -11 -21 -11 -4 0 -22 -7 -40 -14 -17 -7 -66 -24 -107 -36 -41 -13 -82
-25 -90 -29 -8 -3 -19 -6 -25 -7 -5 -2 -39 -11 -75 -20 -36 -10 -71 -18 -78
-18 -9 0 -8 -5 3 -17 14 -16 14 -18 0 -24 -9 -3 -22 -3 -27 1 -7 4 -8 1 -3 -8
12 -19 58 -55 67 -52 5 2 8 -1 8 -6 0 -5 13 -14 30 -21 16 -7 30 -16 30 -21 0
-5 3 -8 8 -7 4 1 25 -6 47 -16 22 -10 45 -19 50 -20 6 -1 20 -7 31 -14 12 -6
24 -9 27 -5 4 3 12 1 19 -5 7 -5 29 -12 48 -15 19 -3 49 -9 65 -12 17 -4 59
-8 95 -10 36 -2 67 -4 70 -5 3 -1 9 -2 14 -1 5 1 38 4 75 7 36 3 75 7 87 8 23
2 54 28 54 45 0 6 4 11 8 11 5 0 19 24 33 53 13 28 28 55 34 59 5 4 6 8 1 8
-5 0 -3 7 4 15 7 9 10 18 7 22 -4 3 -2 14 4 25 6 11 13 29 15 41 3 12 7 31 9
42 12 53 16 74 21 125 8 75 11 162 6 178 -5 13 -18 16 -24 5z"/>
<path d="M125 788 c-5 -27 1 -376 7 -398 23 -75 50 -120 102 -166 26 -24 52
-44 56 -44 5 0 21 -5 37 -12 41 -17 55 -18 184 -21 72 -2 115 1 112 7 -4 5 -1
6 7 1 13 -8 187 -11 194 -4 2 2 6 13 8 24 3 18 -3 20 -57 19 -33 0 -63 5 -67
11 -5 7 -8 7 -8 0 0 -14 -50 -14 -50 0 0 7 -3 7 -8 0 -9 -14 -45 -14 -54 0 -5
6 -8 6 -8 -2 0 -11 -7 -11 -45 -3 -5 1 -12 1 -15 0 -18 -7 -60 -4 -60 5 0 6
-3 7 -8 0 -6 -9 -22 -11 -47 -5 -5 1 -14 3 -20 4 -41 7 -75 19 -75 27 0 6 -4
7 -10 4 -5 -3 -10 -1 -10 4 0 6 -6 11 -13 11 -7 0 -19 10 -27 21 -8 12 -19 27
-25 33 -15 17 -35 58 -41 86 -3 14 -7 32 -9 40 -2 8 -4 97 -4 198 -1 174 -2
182 -21 182 -12 0 -21 -8 -25 -22z"/>
<path d="M2419 788 c-5 -10 -6 -18 -2 -18 8 0 8 -283 0 -330 -12 -72 -20 -100
-28 -100 -5 0 -9 -6 -9 -12 -1 -39 -111 -118 -174 -124 -17 -2 -46 -5 -63 -8
-20 -2 -33 1 -33 8 0 7 -3 8 -8 1 -8 -12 -47 -14 -57 -3 -4 4 -15 4 -24 -1
-20 -9 -52 -8 -68 2 -8 5 -13 4 -13 -3 0 -7 -6 -8 -19 0 -11 5 -22 6 -25 2 -6
-10 -46 -10 -62 1 -6 3 -14 3 -18 -1 -4 -4 -17 -7 -29 -7 -29 0 -38 -45 -10
-46 10 0 35 -1 56 -3 22 -2 37 2 37 8 0 7 3 7 8 1 9 -13 85 -13 94 0 5 6 8 6
8 0 0 -5 20 -10 44 -10 26 -1 42 3 39 9 -4 5 -1 6 7 1 15 -9 100 -13 100 -4 0
3 16 5 35 4 20 -1 38 2 41 6 3 5 14 9 25 9 10 0 19 5 19 12 0 6 3 8 6 5 8 -8
61 28 92 63 22 25 59 95 70 134 3 12 7 112 9 223 4 201 4 202 -17 200 -12 -1
-26 -9 -31 -19z"/>
</g>
</svg>
